:SAMPLES-PER-SECOND 30
:FRAME-RANGE 1-2643
:FULLY-SPECIFIED
:DEGREES
1239
root  69.0361 37.3349 33.0244 176.773 24.3725 179.145
RightUpLeg  -3.39516 -2.80529 -12.6273
RightLeg  61.6953 -1.20151 -2.95101
RightFoot  15.552 -2.7373 11.8661
RightToes  7.56698e-010 0 -3.6325e-017
Spine  12.6016 1.19514 -5.5072
Spine1  2.17557 0.542289 -2.49254
HEad  -5.62889 33.2346 -9.10583
LeftShoulder1  1.14833 0.077731 -27.3906
LeftArm  18.9218 17.2277 -15.8555
LeftForeArm  -1.3643 -0.0533127 -19.5561
LeftHand  0.239203 1.58198 -7.67755
RightShoulder  7.99662 10.7447 49.1607
RightArm  17.423 3.05397 16.0126
RightForeArm  -5.12213 19.3931 7.46049
RightHand  0.0578493 3.49235 0.507673
LeftUpLeg  -19.7975 10.8608 -13.2595
LeftLeg  29.6903 8.87535 5.8001
LeftFoot  -10.8264 0.0142788 11.321
LeftToes  1.48244e-010 1.61973e-010 3.308e-011
1240
root  69.4589 37.5378 31.552 176.301 21.0284 178.627
RightUpLeg  -8.99661 -1.60815 -12.1912
RightLeg  66.396 -0.4731 -1.84505
RightFoot  10.5301 -2.36853 12.5913
RightToes  7.56698e-010 0 -3.6325e-017
Spine  13.0725 0.7253 -5.48119
Spine1  2.18863 -0.0149884 -2.96206
HEad  -4.38507 33.9435 -10.2998
LeftShoulder1  1.23109 -0.0854049 -28.1969
LeftArm  18.0468 12.1175 -19.2057
LeftForeArm  0.886493 -1.19368 -19.1831
LeftHand  0.259229 1.21951 -7.5016
RightShoulder  8.28848 11.3104 49.0055
RightArm  11.4999 2.97305 16.8748
RightForeArm  -1.02222 13.1101 12.0928
RightHand  0.057531 3.06136 0.561658
LeftUpLeg  -15.7212 9.08668 -13.8247
LeftLeg  28.4384 7.92771 4.99736
LeftFoot  -12.7291 0.205439 10.5922
LeftToes  1.48244e-010 1.61973e-010 3.308e-011
1241
root  69.8519 37.893 29.9969 176.582 17.0996 179.111
RightUpLeg  -13.998 -1.49302 -10.9551
RightLeg  66.2956 -0.805744 -2.66737
RightFoot  8.31503 -1.84337 10.9423
RightToes  7.56698e-010 0 -3.6325e-017
Spine  12.8175 0.291451 -4.43625
Spine1  2.34199 -0.371823 -2.74976
HEad  -3.05327 34.2039 -11.3407
LeftShoulder1  1.40482 -0.492336 -29.0761
LeftArm  13.2998 6.5758 -23.7356
LeftForeArm  5.23093 -1.75678 -18.4805
LeftHand  0.265897 0.642618 -6.65762
RightShoulder  8.10408 11.1614 48.3998
RightArm  13.7517 1.91297 17.1055
RightForeArm  0.257994 10.4456 14.027
RightHand  0.282571 3.36548 3.503
LeftUpLeg  -11.0756 6.01619 -13.4422
LeftLeg  25.576 7.43401 4.1254
LeftFoot  -13.6795 0.290633 10.172
LeftToes  1.48244e-010 1.61973e-010 3.308e-011
1242
root  70.2462 38.2592 28.3911 177.221 13.4921 -179.879
RightUpLeg  -18.2952 -1.28003 -9.33422
RightLeg  62.2535 -2.01744 -4.70107
RightFoot  5.57992 -1.39988 9.64802
RightToes  7.56698e-010 0 -3.6325e-017
Spine  11.9976 -0.0276009 -3.14321
Spine1  2.50092 -0.542819 -2.08166
HEad  -1.84921 34.6656 -11.4819
LeftShoulder1  1.52892 -0.797234 -29.4806
LeftArm  11.4929 2.00566 -29.3646
LeftForeArm  6.99908 -4.75291 -17.2248
LeftHand  0.282046 -0.153061 -5.93387
RightShoulder  7.84269 10.7648 48.1405
RightArm  19.5817 0.65964 16.9473
RightForeArm  4.21794 9.5617 14.7868
RightHand  0.499073 4.22826 5.73636
LeftUpLeg  -6.47327 4.38192 -11.9471
LeftLeg  22.1866 5.78473 2.1292
LeftFoot  -14.4765 0.367254 10.202
LeftToes  1.48244e-010 1.61973e-010 3.308e-011
1243
root  70.625 38.5582 26.7854 177.988 9.95715 -178.769
RightUpLeg  -21.524 -1.08608 -7.91777
RightLeg  54.6817 -4.207 -6.75549
RightFoot  3.18568 -1.25202 9.97125
RightToes  7.56698e-010 0 -3.6325e-017
Spine  11.2189 -0.445897 -1.97177
Spine1  2.24903 -0.831963 -1.15619
HEad  -1.16055 35.2588 -11.0637
LeftShoulder1  1.59659 -0.973378 -29.5975
LeftArm  18.1847 -1.12462 -35.5504
LeftForeArm  2.87046 -11.6666 -14.0989
LeftHand  0.321763 -0.97446 -5.80176
RightShoulder  7.43996 9.99955 48.2624
RightArm  23.0047 -0.748396 16.8894
RightForeArm  11.1586 8.97686 14.9347
RightHand  0.496667 4.75551 5.37633
LeftUpLeg  -2.11916 3.95292 -10.0342
LeftLeg  18.5746 2.96769 0.0985784
LeftFoot  -14.9431 0.428393 10.7258
LeftToes  1.48244e-010 1.61973e-010 3.308e-011
1244
root  70.9762 38.7357 25.2035 178.724 6.25598 -177.947
RightUpLeg  -23.3624 -1.32303 -7.15971
RightLeg  43.7973 -7.16685 -7.59064
RightFoot  2.12363 -1.20078 10.2696
RightToes  7.56698e-010 0 -3.6325e-017
Spine  10.6616 -1.05103 -1.32839
Spine1  1.77363 -1.41763 -0.0356685
HEad  -1.30847 35.8818 -10.825
LeftShoulder1  1.64151 -1.07154 -29.8189
LeftArm  29.436 -3.25353 -41.4308
LeftForeArm  -2.85321 -19.4607 -7.89921
LeftHand  0.348878 -1.77222 -5.51723
RightShoulder  6.9078 8.97053 48.5144
RightArm  22.5225 -2.15248 16.7952
RightForeArm  15.1395 8.02376 15.1602
RightHand  0.332368 4.73808 3.509
LeftUpLeg  1.71742 3.40978 -8.57321
LeftLeg  15.4784 0.0416825 -0.805142
LeftFoot  -15.3766 0.472232 10.7391
LeftToes  1.48244e-010 1.61973e-010 3.308e-011
1245
root  71.3373 38.7873 23.6138 179.387 3.16681 -177.398
RightUpLeg  -23.7094 -1.03811 -6.82531
RightLeg  29.6753 -10.0589 -6.3667
RightFoot  2.13295 -1.1522 9.8546
RightToes  7.56698e-010 0 -3.6325e-017
Spine  10.4657 -1.46384 -0.806722
Spine1  0.976723 -1.74481 0.621805
HEad  -1.82067 36.2397 -10.6257
LeftShoulder1  1.73081 -1.27559 -30.1628
LeftArm  29.3633 -5.07096 -45.9405
LeftForeArm  3.88267 -24.8738 -5.12304
LeftHand  0.357986 -2.36032 -5.18253
RightShoulder  6.20823 7.56649 49.1405
RightArm  21.2131 -3.20541 16.362
RightForeArm  13.2399 7.26766 15.5755
RightHand  0.273225 4.58925 2.88443
LeftUpLeg  5.1114 3.76898 -7.04906
LeftLeg  13.0858 -2.70157 -1.28975
LeftFoot  -16.2204 0.542682 10.412
LeftToes  1.48244e-010 1.61973e-010 3.308e-011
1246
root  71.7103 38.6793 21.9784 179.591 0.278046 -177.214
RightUpLeg  -22.6215 -2.62861 -6.35508
RightLeg  14.7009 -11.9712 -3.79655
RightFoot  1.09771 -1.17475 10.8185
RightToes  7.56698e-010 0 -3.6325e-017
Spine  10.2522 -1.89726 -0.986488
Spine1  1.07434 -2.2609 1.42877
HEad  -2.78743 36.6172 -10.6863
LeftShoulder1  1.83328 -1.4776 -30.7606
LeftArm  23.485 -7.02975 -49.3469
LeftForeArm  14.0998 -29.3308 -5.59494
LeftHand  0.387749 -2.81245 -5.28044
RightShoulder  5.79311 6.74684 49.5251
RightArm  19.4301 -3.72289 16.096
RightForeArm  10.0575 6.32889 16.0945
RightHand  0.303862 4.24168 3.38072
LeftUpLeg  8.44053 4.43411 -5.67311
LeftLeg  11.6701 -4.42967 -1.35196
LeftFoot  -17.515 0.640774 9.89826
LeftToes  1.48244e-010 1.61973e-010 3.308e-011
1247
root  72.109 38.4496 20.2542 179.229 -1.9071 -177.038
RightUpLeg  -21.4137 -5.39054 -5.39561
RightLeg  4.01711 -10.7354 0.107945
RightFoot  1.13765 -1.29623 11.8877
RightToes  7.56698e-010 0 -3.6325e-017
Spine  10.5672 -2.22973 -1.17131
Spine1  1.16041 -2.6864 1.93788
HEad  -3.44815 37.1229 -10.7804
LeftShoulder1  1.92905 -1.67196 -31.2349
LeftArm  18.8003 -8.58204 -51.5548
LeftForeArm  19.0383 -32.8693 -6.18225
LeftHand  0.392475 -2.84881 -5.32073
RightShoulder  5.88787 6.85404 49.812
RightArm  17.5159 -3.95458 15.7727
RightForeArm  9.27718 4.47561 16.7851
RightHand  0.354673 4.15551 4.03393
LeftUpLeg  12.0788 5.54137 -3.89005
LeftLeg  11.1688 -5.53319 -1.388
LeftFoot  -19.4213 0.714407 8.44247
LeftToes  1.48244e-010 1.61973e-010 3.308e-011
1248
root  72.5595 38.0972 18.4278 178.664 -3.22678 -176.908
RightUpLeg  -20.7789 -5.68623 -4.59544
RightLeg  0.320777 -14.1528 2.86694
RightFoot  1.7005 -1.55033 13.6064
RightToes  7.56698e-010 0 -3.6325e-017
Spine  11.1069 -2.37361 -1.66893
Spine1  0.944272 -2.97357 2.49251
HEad  -3.19695 37.9588 -11.0382
LeftShoulder1  1.96421 -1.70159 -31.7009
LeftArm  15.484 -9.52065 -51.5231
LeftForeArm  21.2008 -35.7655 -6.81503
LeftHand  0.369073 -2.80708 -5.01983
RightShoulder  6.29038 7.55709 49.8306
RightArm  15.6438 -3.54306 15.6534
RightForeArm  12.1184 1.32273 17.4937
RightHand  0.395253 4.33999 4.42796
LeftUpLeg  15.3384 6.73121 -1.83205
LeftLeg  12.2937 -6.37844 -1.49212
LeftFoot  -21.6233 0.670135 5.99651
LeftToes  1.48244e-010 1.61973e-010 3.308e-011
1249
root  73.0147 37.8243 16.5315 178.403 -3.79144 -176.492
RightUpLeg  -20.7756 -5.67091 -2.44688
RightLeg  2.47544 -19.324 3.48643
RightFoot  1.90771 -1.41661 12.2672
RightToes  7.56698e-010 0 -3.6325e-017
Spine  11.1861 -2.45583 -1.44023
Spine1  1.19003 -3.18196 2.85584
HEad  -2.17201 39.0831 -11.2614
LeftShoulder1  1.93407 -1.6475 -31.5107
LeftArm  11.9126 -9.07259 -49.4403
LeftForeArm  23.1151 -38.068 -7.34226
LeftHand  0.346627 -2.73905 -4.74686
RightShoulder  6.70743 8.20472 50.189
RightArm  15.4367 -2.55976 15.3032
RightForeArm  15.121 -1.26253 17.8918
RightHand  0.43684 4.69031 4.72872
LeftUpLeg  18.0596 7.83838 0.699421
LeftLeg  13.8934 -6.73413 -1.64958
LeftFoot  -22.538 0.341367 2.10104
LeftToes  1.48244e-010 1.61973e-010 3.308e-011
1250
root  73.3929 37.7305 14.5995 178.448 -3.97076 -175.39
RightUpLeg  -22.8486 -5.61072 0.59668
RightLeg  9.17712 -13.431 1.81968
RightFoot  10.5361 0.219106 -0.757382
RightToes  7.56698e-010 0 -3.6325e-017
Spine  11.3037 -2.45163 0.674087
Spine1  1.61627 -3.30104 3.20126
HEad  -1.04947 39.9869 -11.9446
LeftShoulder1  1.83733 -1.417 -31.2995
LeftArm  8.31065 -7.45426 -45.6871
LeftForeArm  23.1787 -38.9293 -7.5899
LeftHand  0.362304 -2.77897 -4.94324
RightShoulder  6.64557 8.09649 50.1905
RightArm  14.6002 -2.09242 15.0529
RightForeArm  17.5436 -2.33787 17.8401
RightHand  0.447125 4.82792 4.77262
LeftUpLeg  19.9621 8.0121 3.3491
LeftLeg  16.1669 -4.73258 -1.19183
LeftFoot  -21.1378 -0.324611 -5.26374
LeftToes  1.48244e-010 1.61973e-010 3.308e-011
